<svg width="202" height="226" viewBox="0 0 202 226" fill="none" xmlns="http://www.w3.org/2000/svg">
<rect x="0.5" y="0.529541" width="201" height="224.942" fill="#323232" stroke="#323232"/>
<mask id="mask0_79_2902" style="mask-type:alpha" maskUnits="userSpaceOnUse" x="1" y="1" width="200" height="224">
<rect x="1" y="1" width="200" height="224" fill="#EBEBE9"/>
</mask>
<g mask="url(#mask0_79_2902)">
<path d="M101 301.528C114.132 301.528 127.136 299.491 139.268 295.532C151.401 291.574 162.425 285.773 171.711 278.459C180.997 271.145 188.362 262.462 193.388 252.906C198.413 243.35 201 233.108 201 222.765C201 212.421 198.413 202.179 193.388 192.623C188.362 183.067 180.997 174.385 171.711 167.071C162.425 159.757 151.401 153.955 139.268 149.997C127.136 146.039 114.132 144.002 101 144.002L101 222.765L101 301.528Z" fill="#E7E4DE" stroke="#323232"/>
<path d="M101 144.002C87.8678 144.002 74.8642 146.039 62.7317 149.998C50.5991 153.956 39.5752 159.757 30.2893 167.071C21.0035 174.385 13.6375 183.068 8.61207 192.624C3.58659 202.18 1.00002 212.422 1.00001 222.765C1.00001 233.109 3.58659 243.351 8.61206 252.907C13.6375 262.463 21.0035 271.145 30.2893 278.459C39.5752 285.773 50.5991 291.575 62.7317 295.533C74.8642 299.491 87.8678 301.528 101 301.528L101 222.765L101 144.002Z" fill="#E7E4DE" stroke="#323232"/>
</g>
<path d="M125.378 174.892V144.655L100.502 161.045L125.378 174.892Z" fill="#E7E4DE" stroke="#323232"/>
<path d="M76.6218 174.892V144.655L100.502 161.045L76.6218 174.892Z" fill="#E7E4DE" stroke="#323232"/>
<path d="M101.13 160.449C105.32 160.449 109.47 159.369 113.341 157.271C117.213 155.174 120.731 152.099 123.694 148.224C126.657 144.348 129.008 139.746 130.611 134.682C132.215 129.618 133.04 124.191 133.04 118.709C133.04 113.228 132.215 107.801 130.611 102.737C129.008 97.6725 126.657 93.0712 123.694 89.1953C120.731 85.3195 117.213 82.245 113.341 80.1474C109.47 78.0498 105.32 76.9702 101.13 76.9702L101.13 118.709L101.13 160.449Z" fill="#E7E4DE" stroke="#323232"/>
<path d="M101.13 76.9705C96.9394 76.9705 92.7899 78.0502 88.9183 80.1477C85.0467 82.2453 81.5289 85.3198 78.5657 89.1957C75.6025 93.0715 73.252 97.6728 71.6483 102.737C70.0446 107.801 69.2192 113.228 69.2192 118.71C69.2192 124.191 70.0446 129.619 71.6483 134.683C73.252 139.747 75.6025 144.348 78.5657 148.224C81.5289 152.1 85.0467 155.174 88.9183 157.272C92.7899 159.369 96.9394 160.449 101.13 160.449L101.13 118.71L101.13 76.9705Z" fill="#E7E4DE" stroke="#323232"/>
</svg>
