<svg width="24" height="28" viewBox="0 0 24 28" fill="none" xmlns="http://www.w3.org/2000/svg">
<path d="M20.0133 7.98576C18.9633 6.93025 17.7145 6.09344 16.339 5.52373C14.9636 4.95401 13.4888 4.66272 12 4.66669H7.88569L11.099 1.45256L10.1564 0.509766L5.33329 5.33336L10.1569 10.157L11.0996 9.21416L7.88569 6.00003H12C13.9778 6.00003 15.9112 6.58652 17.5557 7.68533C19.2001 8.78415 20.4818 10.3459 21.2388 12.1732C21.9957 14.0004 22.1937 16.0111 21.8078 17.9509C21.422 19.8908 20.4696 21.6725 19.071 23.0711C17.6725 24.4696 15.8906 25.422 13.9509 25.8079C12.011 26.1937 10.0004 25.9957 8.17312 25.2388C6.34587 24.482 4.78408 23.2003 3.68527 21.5557C2.58645 19.9112 1.99996 17.9779 1.99996 16H0.666626C0.666599 17.8639 1.12624 19.6989 2.00484 21.3427C2.88343 22.9864 4.15385 24.3881 5.70356 25.4236C7.25328 26.4591 9.03444 27.0963 10.8893 27.2789C12.7441 27.4616 14.6154 27.184 16.3373 26.4707C18.0593 25.7575 19.5786 24.6304 20.761 23.1896C21.9433 21.7488 22.7521 20.0387 23.1157 18.2107C23.4792 16.3827 23.3862 14.4932 22.8452 12.7097C22.304 10.9261 21.3313 9.30359 20.0133 7.98576Z" fill="#323232"/>
</svg>
