<svg width="358" height="52" viewBox="0 0 358 52" fill="none" xmlns="http://www.w3.org/2000/svg">
<rect x="353.078" y="21" width="3.92307" height="19" rx="1.96154" fill="#323232"/>
<rect x="35.3066" y="16" width="3.92307" height="27" rx="1.96154" fill="#323232"/>
<rect x="41.1914" y="21" width="3.92307" height="19" rx="1.96154" fill="#323232"/>
<rect x="11.7695" y="8" width="3.92307" height="39" rx="1.96154" fill="#323232"/>
<rect x="17.6543" y="13" width="3.92307" height="39" rx="1.96154" fill="#323232"/>
<rect x="29.4238" y="13" width="3.92307" height="39" rx="1.96154" fill="#323232"/>
<rect x="23.5391" width="3.92307" height="47" rx="1.96154" fill="#323232"/>
<rect x="5.88477" y="13" width="3.92307" height="39" rx="1.96154" fill="#323232"/>
<rect width="3.92307" height="47" rx="1.96154" fill="#323232"/>
<rect x="323.652" y="7" width="3.92307" height="39" rx="1.96154" fill="#323232"/>
<rect x="317.771" y="16" width="3.92307" height="27" rx="1.96154" fill="#323232"/>
<rect x="311.885" y="23" width="3.92307" height="19" rx="1.96154" fill="#323232"/>
<rect x="329.537" y="13" width="3.92307" height="39" rx="1.96154" fill="#323232"/>
<rect x="335.424" y="8" width="3.92307" height="39" rx="1.96154" fill="#323232"/>
<rect x="341.307" y="13" width="3.92307" height="39" rx="1.96154" fill="#323232"/>
<rect x="347.191" width="3.92307" height="47" rx="1.96154" fill="#323232"/>
<rect x="306" y="16" width="3.92307" height="27" rx="1.96154" fill="#323232"/>
<rect x="258.922" y="14" width="3.92307" height="27" rx="1.96154" fill="#323232"/>
<rect x="253.039" y="21" width="3.92307" height="19" rx="1.96154" fill="#323232"/>
<rect x="247.154" y="21" width="3.92307" height="19" rx="1.96154" fill="#323232"/>
<rect x="235.385" y="5" width="3.92307" height="39" rx="1.96154" fill="#323232"/>
<rect x="229.5" y="14" width="3.92307" height="27" rx="1.96154" fill="#323232"/>
<rect x="223.615" y="21" width="3.92307" height="19" rx="1.96154" fill="#323232"/>
<rect x="241.268" y="11" width="3.92307" height="39" rx="1.96154" fill="#323232"/>
<rect x="194.193" y="7" width="3.92307" height="39" rx="1.96154" fill="#323232"/>
<rect x="188.307" y="16" width="3.92307" height="27" rx="1.96154" fill="#323232"/>
<rect x="182.422" y="23" width="3.92307" height="19" rx="1.96154" fill="#323232"/>
<rect x="200.076" y="13" width="3.92307" height="39" rx="1.96154" fill="#323232"/>
<rect x="205.961" y="8" width="3.92307" height="39" rx="1.96154" fill="#323232"/>
<rect x="211.848" y="13" width="3.92307" height="39" rx="1.96154" fill="#323232"/>
<rect x="217.73" width="3.92307" height="47" rx="1.96154" fill="#323232"/>
<rect x="176.537" y="16" width="3.92307" height="27" rx="1.96154" fill="#323232"/>
<rect x="300.115" y="23" width="3.92307" height="19" rx="1.96154" fill="#323232"/>
<rect x="294.23" y="23" width="3.92307" height="19" rx="1.96154" fill="#323232"/>
<rect x="282.461" y="7" width="3.92307" height="39" rx="1.96154" fill="#323232"/>
<rect x="276.576" y="16" width="3.92307" height="27" rx="1.96154" fill="#323232"/>
<rect x="270.693" y="23" width="3.92307" height="19" rx="1.96154" fill="#323232"/>
<rect x="288.346" y="13" width="3.92307" height="39" rx="1.96154" fill="#323232"/>
<rect x="264.809" y="2" width="3.92307" height="47" rx="1.96154" fill="#323232"/>
<rect x="129.461" y="14" width="3.92307" height="27" rx="1.96154" fill="#323232"/>
<rect x="123.578" y="21" width="3.92307" height="19" rx="1.96154" fill="#323232"/>
<rect x="117.693" y="21" width="3.92307" height="19" rx="1.96154" fill="#323232"/>
<rect x="105.924" y="5" width="3.92307" height="39" rx="1.96154" fill="#323232"/>
<rect x="100.039" y="14" width="3.92307" height="27" rx="1.96154" fill="#323232"/>
<rect x="94.1523" y="21" width="3.92307" height="19" rx="1.96154" fill="#323232"/>
<rect x="111.809" y="11" width="3.92307" height="39" rx="1.96154" fill="#323232"/>
<rect x="64.7324" y="7" width="3.92307" height="39" rx="1.96154" fill="#323232"/>
<rect x="58.8457" y="16" width="3.92307" height="27" rx="1.96154" fill="#323232"/>
<rect x="52.9609" y="23" width="3.92307" height="19" rx="1.96154" fill="#323232"/>
<rect x="70.6172" y="13" width="3.92307" height="39" rx="1.96154" fill="#323232"/>
<rect x="76.5" y="8" width="3.92307" height="39" rx="1.96154" fill="#323232"/>
<rect x="82.3848" y="13" width="3.92307" height="39" rx="1.96154" fill="#323232"/>
<rect x="88.2695" width="3.92307" height="47" rx="1.96154" fill="#323232"/>
<rect x="47.0781" y="16" width="3.92307" height="27" rx="1.96154" fill="#323232"/>
<rect x="170.654" y="23" width="3.92307" height="19" rx="1.96154" fill="#323232"/>
<rect x="164.77" y="23" width="3.92307" height="19" rx="1.96154" fill="#323232"/>
<rect x="153" y="7" width="3.92307" height="39" rx="1.96154" fill="#323232"/>
<rect x="147.115" y="16" width="3.92307" height="27" rx="1.96154" fill="#323232"/>
<rect x="141.23" y="23" width="3.92307" height="19" rx="1.96154" fill="#323232"/>
<rect x="158.885" y="13" width="3.92307" height="39" rx="1.96154" fill="#323232"/>
<rect x="135.344" y="2" width="3.92307" height="47" rx="1.96154" fill="#323232"/>
</svg>
