<svg width="24" height="28" viewBox="0 0 24 28" fill="none" xmlns="http://www.w3.org/2000/svg">
<path d="M22 16C22 17.9779 21.4134 19.9112 20.3146 21.5557C19.2158 23.2003 17.6541 24.482 15.8268 25.2388C13.9996 25.9957 11.9889 26.1937 10.049 25.8079C8.10926 25.422 6.32743 24.4696 4.9289 23.0711C3.53038 21.6725 2.57796 19.8908 2.19211 17.9509C1.80626 16.0111 2.0043 14.0004 2.76118 12.1732C3.51804 10.3459 4.79978 8.78415 6.44427 7.68533C8.08876 6.58652 10.0221 6.00003 12 6.00003H16.1142L12.9009 9.21416L13.8436 10.157L18.6666 5.33336L13.843 0.509766L12.9004 1.45256L16.1142 4.66669H12C9.75849 4.66669 7.56727 5.33139 5.70351 6.57671C3.83975 7.82203 2.38712 9.59205 1.52934 11.6629C0.671535 13.7339 0.447096 16.0127 0.884402 18.2111C1.3217 20.4095 2.4011 22.4289 3.9861 24.0139C5.57108 25.5989 7.59049 26.6783 9.78889 27.1156C11.9874 27.5529 14.2661 27.3284 16.337 26.4707C18.408 25.6129 20.178 24.1603 21.4233 22.2965C22.6686 20.4328 23.3333 18.2416 23.3333 16H22Z" fill="#323232"/>
</svg>
