<svg width="26" height="28" viewBox="0 0 26 28" fill="none" xmlns="http://www.w3.org/2000/svg">
<path d="M0 8.66672V19.3333H6.7812L14.6667 27.2188V0.78125L6.7812 8.66672H0ZM13.3333 4.00005V24L7.724 18.3905L7.33333 18H1.33333V10H7.33333L13.3333 4.00005ZM18.0975 11.6428C18.7217 12.2684 19.0724 13.1161 19.0724 13.9999C19.0724 14.8837 18.7217 15.7315 18.0975 16.3569L19.0403 17.2997C19.9141 16.4239 20.4049 15.2371 20.4049 13.9997C20.4049 12.7625 19.9141 11.5757 19.0403 10.6998L18.0975 11.6428ZM22.8115 6.92885L21.8688 7.87165C23.4916 9.49828 24.4031 11.7021 24.4031 13.9999C24.4031 16.2976 23.4916 18.5016 21.8688 20.1281L22.8115 21.0709C24.6841 19.1943 25.7359 16.6512 25.7359 14C25.7359 11.3488 24.6841 8.80576 22.8115 6.92898V6.92885Z" fill="#323232"/>
</svg>
