<svg width="294" height="30" viewBox="0 0 294 30" fill="none" xmlns="http://www.w3.org/2000/svg">
<path d="M53.6977 23.5006C53.6977 23.2963 53.6977 23.0411 53.468 23.0411H52.115C51.9618 23.0411 51.8853 22.9645 51.8853 22.7092V7.03509C51.8853 6.77981 51.9618 6.70323 52.115 6.70323H53.468C53.6977 6.70323 53.6977 6.47348 53.6977 6.26926C53.6977 6.06503 53.6977 5.80975 53.468 5.80975H35.6751C35.4453 5.80975 35.4453 6.06503 35.4453 6.26926C35.4453 6.47348 35.4453 6.70323 35.6751 6.70323H37.028C37.1812 6.70323 37.2578 6.77981 37.2578 7.03509V22.7092C37.2578 22.9645 37.1812 23.0411 37.028 23.0411H35.6751C35.4453 23.0411 35.4453 23.2963 35.4453 23.5006C35.4453 23.7048 35.4453 23.9345 35.6751 23.9345H41.7507C41.9804 23.9345 41.9804 23.7048 41.9804 23.5006C41.9804 23.2963 41.9804 23.0411 41.7507 23.0411H40.3977C40.2446 23.0411 40.168 22.9645 40.168 22.7092V6.95851H48.9751V22.7092C48.9751 22.9645 48.8985 23.0411 48.7453 23.0411H47.3924C47.1626 23.0411 47.1626 23.2963 47.1626 23.5006C47.1626 23.7048 47.1626 23.9345 47.3924 23.9345H53.468C53.6977 23.9345 53.6977 23.7048 53.6977 23.5006Z" fill="#323232"/>
<path d="M64.3582 11.4769C64.3582 12.9065 63.7456 16.0209 60.7843 16.0209H59.7377V6.93298H60.7843C63.7456 6.93298 64.3582 10.0474 64.3582 11.4769ZM67.5747 11.4769C67.5747 7.41801 64.7411 5.80975 61.0396 5.80975H55.2448C55.015 5.80975 55.015 6.06503 55.015 6.26926C55.015 6.47348 55.015 6.70323 55.2448 6.70323H56.5977C56.7509 6.70323 56.8275 6.77981 56.8275 7.03509V22.7092C56.8275 22.9645 56.7509 23.0411 56.5977 23.0411H55.2448C55.015 23.0411 55.015 23.2963 55.015 23.5006C55.015 23.7048 55.015 23.9345 55.2448 23.9345H61.3204C61.5502 23.9345 61.5502 23.7048 61.5502 23.5006C61.5502 23.2963 61.5502 23.0411 61.3204 23.0411H59.9674C59.8143 23.0411 59.7377 22.9645 59.7377 22.7092V17.1441H61.0396C64.7411 17.1441 67.5747 15.5359 67.5747 11.4769Z" fill="#323232"/>
<path d="M85.0534 14.8466C85.0534 19.314 82.7303 22.9134 78.8756 22.9134C74.9954 22.9134 72.7489 19.314 72.7489 14.8466C72.7489 10.3792 74.9954 6.75428 78.8756 6.75428C82.7303 6.75428 85.0534 10.3792 85.0534 14.8466ZM88.2699 14.8721C88.2699 9.71552 84.1088 5.50342 78.8756 5.50342C73.6934 5.50342 69.5324 9.71552 69.5324 14.8721C69.5324 20.0798 73.6934 24.2409 78.8756 24.2409C84.1088 24.2409 88.2699 20.0798 88.2699 14.8721Z" fill="#323232"/>
<path d="M118.23 22.4539C118.23 22.1731 118.025 22.071 117.796 22.071C117.54 22.071 116.749 22.505 116.238 22.505C113.915 22.505 112.741 20.667 111.643 18.4716C110.495 16.1741 109.04 13.1363 105.338 12.5236C105.772 9.89421 107.61 6.80534 109.525 6.80534C109.448 7.03509 109.397 7.23931 109.397 7.41801C109.397 8.31148 109.984 8.71993 110.852 8.71993C111.873 8.71993 112.333 7.87751 112.333 7.23931C112.333 5.63106 110.878 5.50342 110.163 5.50342C106.487 5.50342 104.674 9.38365 103.985 12.3449H103.883V7.03509C103.883 6.8564 103.934 6.70323 104.164 6.70323H105.466C105.695 6.70323 105.695 6.47348 105.695 6.26926C105.695 6.06503 105.695 5.80975 105.466 5.80975H99.39C99.1603 5.80975 99.1603 6.06503 99.1603 6.26926C99.1603 6.47348 99.1603 6.70323 99.39 6.70323H100.743C100.896 6.70323 100.973 6.77981 100.973 7.03509V12.3449H100.871C100.181 9.38365 98.3689 5.50342 94.6929 5.50342C93.9781 5.50342 92.523 5.63106 92.523 7.23931C92.523 7.87751 92.9826 8.71993 94.0037 8.71993C94.8716 8.71993 95.4588 8.31148 95.4588 7.41801C95.4588 7.23931 95.4077 7.03509 95.3311 6.80534C97.2457 6.80534 99.0837 9.89421 99.5177 12.5236C95.8161 13.1363 94.3611 16.1741 93.2123 18.4716C92.1146 20.667 90.9403 22.505 88.6173 22.505C88.1067 22.505 87.3154 22.071 87.0601 22.071C86.8303 22.071 86.6261 22.1731 86.6261 22.4539C86.6261 23.2963 88.5662 24.2664 89.9958 24.2664C93.4931 24.2664 94.4887 22.8879 96.0714 19.8756C97.501 17.1441 98.5732 14.2595 100.973 14.2595V22.7092C100.973 22.9645 100.896 23.0411 100.743 23.0411H99.39C99.1603 23.0411 99.1603 23.2963 99.1603 23.5006C99.1603 23.7048 99.1603 23.9345 99.39 23.9345H105.466C105.695 23.9345 105.695 23.7048 105.695 23.5006C105.695 23.2963 105.695 23.0411 105.466 23.0411H104.113C103.96 23.0411 103.883 22.9645 103.883 22.7092V14.2595C106.283 14.2595 107.355 17.1441 108.784 19.8756C110.367 22.8879 111.363 24.2664 114.86 24.2664C116.289 24.2664 118.23 23.2963 118.23 22.4539Z" fill="#323232"/>
<path d="M137.784 23.5006C137.784 23.2963 137.784 23.0411 137.554 23.0411H136.201C136.048 23.0411 135.972 22.9645 135.972 22.7092V7.03509C135.972 6.77981 136.048 6.70323 136.201 6.70323H137.554C137.784 6.70323 137.784 6.47348 137.784 6.26926C137.784 6.06503 137.784 5.80975 137.554 5.80975H131.479C131.249 5.80975 131.249 6.06503 131.249 6.26926C131.249 6.47348 131.249 6.70323 131.479 6.70323H132.832C132.985 6.70323 133.062 6.77981 133.062 7.03509V7.54565L123.233 20.0543V7.03509C123.233 6.77981 123.31 6.70323 123.463 6.70323H124.79C125.02 6.70323 125.02 6.47348 125.02 6.26926C125.02 6.06503 125.02 5.80975 124.79 5.80975H118.74C118.511 5.80975 118.511 6.06503 118.511 6.26926C118.511 6.47348 118.511 6.70323 118.74 6.70323H120.093C120.247 6.70323 120.323 6.77981 120.323 7.03509V22.7092C120.323 22.9645 120.247 23.0411 120.093 23.0411H118.74C118.511 23.0411 118.511 23.2963 118.511 23.5006C118.511 23.7048 118.511 23.9345 118.74 23.9345H124.816C125.046 23.9345 125.046 23.7048 125.046 23.5006C125.046 23.2963 125.046 23.0411 124.816 23.0411H123.463C123.31 23.0411 123.233 22.9645 123.233 22.7092V22.2497L133.062 9.74105V22.7092C133.062 22.9645 132.985 23.0411 132.832 23.0411H131.479C131.249 23.0411 131.249 23.2963 131.249 23.5006C131.249 23.7048 131.249 23.9345 131.479 23.9345H137.554C137.784 23.9345 137.784 23.7048 137.784 23.5006Z" fill="#323232"/>
<path d="M138.643 8.4136C138.617 8.46465 138.566 8.59229 138.566 8.6944C138.566 8.92415 138.796 8.94968 139.128 8.94968C139.46 8.94968 139.613 8.84757 139.69 8.77099L140.889 7.62223C141.323 7.18826 141.911 6.93298 142.702 6.93298H145.638V22.7092C145.638 22.939 145.561 23.0155 145.408 23.0155H144.055C143.825 23.0155 143.825 23.2453 143.825 23.4495C143.825 23.6537 143.825 23.909 144.055 23.9345H150.131C150.36 23.909 150.36 23.6537 150.36 23.4495C150.36 23.2453 150.36 23.0155 150.131 23.0155H148.778C148.624 23.0155 148.548 22.939 148.548 22.7092V6.93298H151.483C152.275 6.93298 152.862 7.18826 153.296 7.62223L154.496 8.77099C154.572 8.84757 154.726 8.94968 155.057 8.94968C155.389 8.94968 155.619 8.92415 155.619 8.6944C155.619 8.59229 155.568 8.46465 155.542 8.4136L154.24 5.80975H139.945L138.643 8.4136Z" fill="#323232"/>
<path d="M171.783 14.8466C171.783 19.314 169.46 22.9134 165.606 22.9134C161.725 22.9134 159.479 19.314 159.479 14.8466C159.479 10.3792 161.725 6.75428 165.606 6.75428C169.46 6.75428 171.783 10.3792 171.783 14.8466ZM175 14.8721C175 9.71552 170.839 5.50342 165.606 5.50342C160.423 5.50342 156.262 9.71552 156.262 14.8721C156.262 20.0798 160.423 24.2409 165.606 24.2409C170.839 24.2409 175 20.0798 175 14.8721Z" fill="#323232"/>
<circle cx="14.3594" cy="15.0001" r="14.3594" fill="#E96A41"/>
<path fill-rule="evenodd" clip-rule="evenodd" d="M15.4578 8.61816H9.71028L5.42578 21.3821H11.1733L15.4578 8.61816ZM23.2937 8.61816H17.5462L13.2617 21.3821H19.0092L23.2937 8.61816Z" fill="white"/>
<g clip-path="url(#clip0_79_4413)">
<path fill-rule="evenodd" clip-rule="evenodd" d="M230.091 3.93758H228.18V5.06944H230.038V5.77011H228.18V7.38705H230.091V8.08773H227.464V3.20996H230.091V3.93758Z" fill="#9E9E9E"/>
<path fill-rule="evenodd" clip-rule="evenodd" d="M232.055 7.38705H232.507C233.303 7.38705 233.462 6.98282 233.462 6.65943C233.462 6.30909 233.303 5.93181 232.533 5.93181H232.055V7.38705ZM232.055 5.31198H232.294C232.454 5.31198 233.064 5.31198 233.064 4.58436C233.064 3.99148 232.586 3.93758 232.294 3.93758H232.055V5.31198ZM232.055 3.20996C232.666 3.20996 232.931 3.29081 233.197 3.47945C233.409 3.6142 233.754 3.93758 233.754 4.58436C233.754 4.8269 233.701 5.17724 233.356 5.47368C233.887 5.63537 234.179 6.0935 234.179 6.60553C234.179 6.82113 234.152 7.36011 233.701 7.73739C233.303 8.06078 232.905 8.08773 232.427 8.08773H231.339V3.20996H232.055Z" fill="#9E9E9E"/>
<path fill-rule="evenodd" clip-rule="evenodd" d="M235.824 5.41978H236.169C236.78 5.41978 237.098 5.12334 237.098 4.66521C237.098 4.39572 236.992 3.91063 236.143 3.91063H235.824V5.41978ZM236.143 3.20996C236.461 3.20996 236.86 3.26386 237.205 3.47945C237.603 3.74894 237.788 4.23402 237.788 4.66521C237.788 4.9347 237.735 5.39283 237.337 5.71622C236.939 6.06655 236.514 6.0935 236.169 6.0935H235.824V8.08773H235.108V3.20996H236.143Z" fill="#9E9E9E"/>
<path fill-rule="evenodd" clip-rule="evenodd" d="M242.698 5.66211C242.698 4.58415 241.982 3.80263 240.947 3.80263C239.912 3.80263 239.195 4.58415 239.195 5.66211C239.195 6.74007 239.912 7.49464 240.947 7.49464C241.982 7.49464 242.698 6.74007 242.698 5.66211ZM243.442 5.66211C243.442 7.09041 242.38 8.16837 240.947 8.16837C239.514 8.16837 238.452 7.09041 238.452 5.66211C238.452 4.23381 239.514 3.12891 240.947 3.12891C242.38 3.12891 243.442 4.23381 243.442 5.66211Z" fill="#9E9E9E"/>
<path fill-rule="evenodd" clip-rule="evenodd" d="M247.874 3.20996V8.08773H247.131V3.93758H245.088V8.08773H244.345V3.20996H247.874Z" fill="#9E9E9E"/>
<path fill-rule="evenodd" clip-rule="evenodd" d="M251.935 3.93758H250.024V5.06944H251.881V5.77011H250.024V7.38705H251.935V8.08773H249.307V3.20996H251.935V3.93758Z" fill="#9E9E9E"/>
<path fill-rule="evenodd" clip-rule="evenodd" d="M256.394 4.79963L253.183 8.303V3.20964H253.899V6.49742L257.137 3.021V8.08741H256.394V4.79963Z" fill="#9E9E9E"/>
<path fill-rule="evenodd" clip-rule="evenodd" d="M262.1 4.34161C261.569 3.85653 261.091 3.80263 260.826 3.80263C259.764 3.80263 259.074 4.58415 259.074 5.66211C259.074 6.68617 259.818 7.49464 260.826 7.49464C261.41 7.49464 261.835 7.1982 262.1 6.92871V7.81803C261.649 8.11447 261.118 8.16837 260.8 8.16837C259.924 8.16837 259.393 7.76413 259.101 7.52159C258.544 6.98261 258.358 6.36279 258.358 5.66211C258.358 4.77279 258.703 4.15297 259.101 3.77568C259.605 3.2906 260.163 3.12891 260.826 3.12891C261.277 3.12891 261.702 3.20975 262.1 3.47924V4.34161Z" fill="#9E9E9E"/>
<path fill-rule="evenodd" clip-rule="evenodd" d="M264.039 5.15029L265.896 3.20996H266.852L264.702 5.41978L266.878 8.08773H265.896L264.171 5.93181L264.039 6.06655V8.08773H263.295V3.20996H264.039V5.15029Z" fill="#9E9E9E"/>
<path fill-rule="evenodd" clip-rule="evenodd" d="M271.018 4.79963L267.807 8.303V3.20964H268.524V6.49742L271.761 3.021V8.08741H271.018V4.79963Z" fill="#9E9E9E"/>
<path fill-rule="evenodd" clip-rule="evenodd" d="M276.274 4.79963L273.062 8.303V3.20964H273.779V6.49742L276.99 3.021V8.08741H276.274V4.79963Z" fill="#9E9E9E"/>
<path fill-rule="evenodd" clip-rule="evenodd" d="M227.809 13.3696L229.056 15.8759L230.171 13.3696H230.914L228.764 18.2204H227.995L228.658 16.7652L226.933 13.3696H227.809Z" fill="#9E9E9E"/>
<path fill-rule="evenodd" clip-rule="evenodd" d="M232.268 15.2561H234.338V13.3696H235.054V18.2204H234.338V15.9567H232.268V18.2204H231.524V13.3696H232.268V15.2561Z" fill="#9E9E9E"/>
<path fill-rule="evenodd" clip-rule="evenodd" d="M239.726 14.9324L236.488 18.4358V13.3694H237.231V16.6572L240.443 13.1538V18.2202H239.726V14.9324Z" fill="#9E9E9E"/>
<path fill-rule="evenodd" clip-rule="evenodd" d="M242.46 17.5198H242.911C243.734 17.5198 243.866 17.0886 243.866 16.7922C243.866 16.4418 243.707 16.0645 242.937 16.0645H242.46V17.5198ZM242.46 15.4447H242.699C242.884 15.4447 243.468 15.4447 243.468 14.744C243.468 14.1242 243.017 14.0434 242.725 14.0434H242.46V15.4447ZM242.46 13.3696C243.07 13.3696 243.362 13.4235 243.627 13.6122C243.84 13.7739 244.158 14.0703 244.158 14.7171C244.158 14.9596 244.105 15.3369 243.76 15.6064C244.317 15.7681 244.583 16.2262 244.583 16.7113C244.583 16.9538 244.583 17.4928 244.105 17.8701C243.707 18.1935 243.336 18.2204 242.831 18.2204H241.743V13.3696H242.46Z" fill="#9E9E9E"/>
<path fill-rule="evenodd" clip-rule="evenodd" d="M248.298 14.0434H246.388V15.2022H248.245V15.9028H246.388V17.5198H248.298V18.2204H245.645V13.3696H248.298V14.0434Z" fill="#9E9E9E"/>
<path fill-rule="evenodd" clip-rule="evenodd" d="M250.263 15.5525H250.582C251.219 15.5525 251.51 15.2291 251.51 14.7979C251.51 14.5284 251.404 14.0434 250.582 14.0434H250.263V15.5525ZM250.582 13.3696C250.874 13.3696 251.298 13.3696 251.643 13.6122C252.041 13.8817 252.227 14.3667 252.227 14.7979C252.227 15.0944 252.147 15.5255 251.749 15.8759C251.378 16.1993 250.953 16.2262 250.582 16.2262H250.263V18.2204H249.52V13.3696H250.582Z" fill="#9E9E9E"/>
<path fill-rule="evenodd" clip-rule="evenodd" d="M256.66 14.5014C256.129 14.0163 255.651 13.9624 255.359 13.9624C254.324 13.9624 253.634 14.7439 253.634 15.7949C253.634 16.819 254.351 17.6275 255.359 17.6275C255.943 17.6275 256.394 17.331 256.66 17.0615V17.9508C256.182 18.2473 255.678 18.3012 255.359 18.3012C254.483 18.3012 253.926 17.8969 253.661 17.6275C253.103 17.1154 252.891 16.4956 252.891 15.7949C252.891 14.9056 253.263 14.2858 253.661 13.9085C254.165 13.4234 254.722 13.2617 255.386 13.2617C255.81 13.2617 256.235 13.3426 256.66 13.6121V14.5014Z" fill="#9E9E9E"/>
<path fill-rule="evenodd" clip-rule="evenodd" d="M260.8 14.9324L257.562 18.4358V13.3694H258.305V16.6572L261.516 13.1538V18.2202H260.8V14.9324Z" fill="#9E9E9E"/>
<path fill-rule="evenodd" clip-rule="evenodd" d="M264.277 14.0434V18.2204H263.56V14.0434H262.472V13.3696H265.391V14.0434H264.277Z" fill="#9E9E9E"/>
<path fill-rule="evenodd" clip-rule="evenodd" d="M268.948 14.0434H267.063V15.2022H268.895V15.9028H267.063V17.5198H268.948V18.2204H266.32V13.3696H268.948V14.0434Z" fill="#9E9E9E"/>
<path fill-rule="evenodd" clip-rule="evenodd" d="M271.523 14.0434V18.2204H270.78V14.0434H269.691V13.3696H272.611V14.0434H271.523Z" fill="#9E9E9E"/>
<path fill-rule="evenodd" clip-rule="evenodd" d="M228.18 27.6526H228.632C229.428 27.6526 229.587 27.2214 229.587 26.925C229.587 26.5746 229.401 26.1973 228.658 26.1973H228.18V27.6526ZM228.18 25.5775H228.419C228.579 25.5775 229.189 25.5775 229.189 24.8768C229.189 24.257 228.711 24.1762 228.446 24.1762H228.18V25.5775ZM228.18 23.5024C228.791 23.5024 229.056 23.5563 229.322 23.745C229.534 23.9067 229.879 24.2031 229.879 24.8499C229.879 25.0924 229.826 25.4428 229.481 25.7392C230.012 25.9009 230.304 26.359 230.304 26.8441C230.304 27.0867 230.277 27.6256 229.826 28.0029C229.428 28.3263 229.03 28.3533 228.552 28.3533H227.464V23.5024H228.18Z" fill="#9E9E9E"/>
<path fill-rule="evenodd" clip-rule="evenodd" d="M236.01 24.6342C235.48 24.1491 234.975 24.0952 234.71 24.0952C233.675 24.0952 232.958 24.8767 232.958 25.9277C232.958 26.9787 233.701 27.7603 234.71 27.7603C235.294 27.7603 235.745 27.4638 236.01 27.1943V28.0837C235.533 28.3531 235.028 28.434 234.71 28.434C233.834 28.434 233.277 28.0567 233.011 27.7603C232.454 27.2482 232.242 26.6284 232.242 25.9277C232.242 25.0384 232.613 24.4186 233.011 24.0413C233.489 23.5562 234.073 23.3945 234.736 23.3945C235.188 23.3945 235.586 23.4754 236.01 23.7449V24.6342Z" fill="#9E9E9E"/>
<path fill-rule="evenodd" clip-rule="evenodd" d="M239.434 26.4669L238.717 24.823L237.974 26.4669H239.434ZM239.725 27.1676H237.682L237.151 28.3533H236.355L238.744 23.2061L241.026 28.3533H240.23L239.725 27.1676Z" fill="#9E9E9E"/>
<path fill-rule="evenodd" clip-rule="evenodd" d="M242.354 25.3889H244.397V23.5024H245.141V28.3533H244.397V26.0895H242.354V28.3533H241.611V23.5024H242.354V25.3889Z" fill="#9E9E9E"/>
<path fill-rule="evenodd" clip-rule="evenodd" d="M247.29 25.4158L249.148 23.5024H250.103L247.954 25.6853L250.13 28.3533H249.148L247.45 26.1973L247.29 26.3321V28.3533H246.574V23.5024H247.29V25.4158Z" fill="#9E9E9E"/>
<path fill-rule="evenodd" clip-rule="evenodd" d="M252.386 24.1762V28.3533H251.643V24.1762H250.555V23.5024H253.475V24.1762H252.386Z" fill="#9E9E9E"/>
<path fill-rule="evenodd" clip-rule="evenodd" d="M259.765 23.5024V28.3533H259.021V24.1762H256.951V28.3533H256.235V23.5024H259.765Z" fill="#9E9E9E"/>
<path fill-rule="evenodd" clip-rule="evenodd" d="M263.826 24.1762H261.915V25.3619H263.746V26.0356H261.915V27.6526H263.826V28.3533H261.172V23.5024H263.826V24.1762Z" fill="#9E9E9E"/>
<path fill-rule="evenodd" clip-rule="evenodd" d="M266.373 24.1762V28.3533H265.657V24.1762H264.542V23.5024H267.488V24.1762H266.373Z" fill="#9E9E9E"/>
<path fill-rule="evenodd" clip-rule="evenodd" d="M271.045 24.1762H269.134V25.3619H270.992V26.0356H269.134V27.6526H271.045V28.3533H268.417V23.5024H271.045V24.1762Z" fill="#9E9E9E"/>
<path fill-rule="evenodd" clip-rule="evenodd" d="M273.009 25.6853H273.354C273.991 25.6853 274.283 25.3619 274.283 24.9307C274.283 24.6612 274.177 24.1762 273.354 24.1762H273.009V25.6853ZM273.354 23.5024C273.646 23.5024 274.044 23.5024 274.389 23.745C274.787 24.0145 274.999 24.4726 274.999 24.9307C274.999 25.2272 274.92 25.6584 274.522 26.0087C274.15 26.3321 273.699 26.386 273.354 26.386H273.009V28.3533H272.292V23.5024H273.354Z" fill="#9E9E9E"/>
<path fill-rule="evenodd" clip-rule="evenodd" d="M276.752 27.6526H277.203C277.389 27.6526 278.158 27.6526 278.158 26.925C278.158 26.5477 277.999 26.1434 277.203 26.1434H276.752V27.6526ZM276.009 23.5024H278.397V24.1762H276.752V25.4428H277.23C277.575 25.4428 278.052 25.4967 278.424 25.847C278.689 26.0895 278.875 26.4668 278.875 26.898C278.875 27.3561 278.689 27.8143 278.291 28.0838C277.946 28.3263 277.522 28.3533 277.23 28.3533H276.009V23.5024Z" fill="#9E9E9E"/>
<path fill-rule="evenodd" clip-rule="evenodd" d="M280.149 23.5024L281.396 26.0087L282.511 23.5024H283.254L281.104 28.3533H280.335L280.998 26.898L279.273 23.5024H280.149Z" fill="#9E9E9E"/>
<path fill-rule="evenodd" clip-rule="evenodd" d="M284.608 25.6853H284.927C285.59 25.6853 285.882 25.3619 285.882 24.9307C285.882 24.6612 285.75 24.1762 284.927 24.1762H284.608V25.6853ZM284.927 23.5024C285.219 23.5024 285.643 23.5024 285.988 23.745C286.386 24.0145 286.572 24.4726 286.572 24.9307C286.572 25.2272 286.519 25.6584 286.095 26.0087C285.723 26.3321 285.298 26.386 284.927 26.386H284.608V28.3533H283.865V23.5024H284.927Z" fill="#9E9E9E"/>
<path fill-rule="evenodd" clip-rule="evenodd" d="M287.607 23.5024H289.996V24.1762H288.351V28.3533H287.607V23.5024Z" fill="#9E9E9E"/>
<path fill-rule="evenodd" clip-rule="evenodd" d="M293.605 24.1762H291.695V25.3619H293.552V26.0356H291.695V27.6526H293.605V28.3533H290.978V23.5024H293.605V24.1762Z" fill="#9E9E9E"/>
<path fill-rule="evenodd" clip-rule="evenodd" d="M219.634 2.40137V29H219.98V2.40137H219.634ZM211.805 24.4995V29H212.15V24.3648C212.07 24.3917 211.991 24.4187 211.937 24.4726L211.805 24.4995ZM211.805 2.40137V20.1069C211.937 19.9991 212.044 19.9182 212.15 19.8104V2.40137H211.805ZM202.834 24.1223V29H203.179V24.2839C203.073 24.23 202.94 24.1761 202.834 24.1223ZM202.834 12.5881V19.0289C202.94 19.1906 203.073 19.3523 203.179 19.487V12.2377C203.073 12.3455 202.94 12.4533 202.834 12.5881ZM202.834 2.40137V8.06065C202.94 8.03371 203.073 8.00676 203.179 7.97981V2.40137H202.834ZM195.004 2.40137V29H195.349V2.40137H195.004Z" fill="#9E9E9E"/>
<path fill-rule="evenodd" clip-rule="evenodd" d="M214.591 9.70433C214.591 9.83908 214.804 10.8092 214.857 11.8603C214.936 13.073 214.936 14.5552 214.698 15.7679C214.459 17.277 213.875 18.867 212.84 19.9719C211.566 21.3463 209.575 21.9392 207.77 21.9392C206.018 21.9392 204.187 21.3732 202.913 20.0797C201.772 18.9209 201.347 17.3578 201.347 15.714C201.347 14.7977 201.533 13.9084 201.825 13.1538C202.409 11.5908 203.789 11.0248 205.381 11.0787C206.125 11.1057 207.558 11.2404 208.115 11.8333C208.858 12.6148 208.699 14.2318 208.407 15.0941C208.354 15.2289 208.248 15.6331 207.744 15.687C207.478 15.714 206.841 15.6601 206.549 15.5792C206.39 15.4984 206.31 15.2828 206.31 15.0941C206.284 14.6899 206.523 14.2857 206.523 13.9084C206.523 13.7467 206.417 13.6119 206.231 13.558C205.833 13.4233 204.798 13.1269 204.293 13.8006C204.107 14.0701 203.895 14.9863 203.975 15.6331C204.054 16.4416 204.532 17.0345 204.983 17.3309C205.488 17.6543 206.31 17.8699 207.133 17.9238C208.062 17.9507 209.071 17.789 209.655 17.3309C210.769 16.4685 210.982 15.4445 211.114 14.0431C211.38 11.8064 210.398 9.73128 208.142 8.89586C204.771 7.62926 200.71 8.41078 199.303 12.1567C198.083 15.3906 198.534 19.4329 200.949 21.9661C203.603 24.7958 208.248 25.2808 211.698 23.9065C214.246 22.9093 215.839 21.0768 216.741 18.4897C217.272 17.0614 217.458 15.4984 217.484 13.9623C217.511 13.1808 217.458 12.4801 217.431 11.8603C217.378 11.2674 217.272 10.5667 217.192 10.1086C217.113 9.83908 216.901 9.78518 216.794 9.75823L215.202 9.4079C214.99 9.38095 214.671 9.4079 214.591 9.70433Z" fill="#FBC90B"/>
<path fill-rule="evenodd" clip-rule="evenodd" d="M255.014 2.34745V3.34456L256.262 1.99711V1L255.014 2.34745Z" fill="#9E9E9E"/>
<path fill-rule="evenodd" clip-rule="evenodd" d="M274.894 2.34745V3.34456L276.141 1.99711V1L274.894 2.34745Z" fill="#9E9E9E"/>
<path fill-rule="evenodd" clip-rule="evenodd" d="M253.873 26.116V27.1131L255.12 25.7926V24.7686L253.873 26.116Z" fill="#9E9E9E"/>
</g>
<defs>
<clipPath id="clip0_79_4413">
<rect width="99" height="28" fill="white" transform="translate(195 1)"/>
</clipPath>
</defs>
</svg>
