<svg width="50" height="50" viewBox="0 0 50 50" fill="none" xmlns="http://www.w3.org/2000/svg">
<path d="M32.674 0H17.326C3.32021 0 0 3.32021 0 17.326V32.674C0 46.6798 3.32021 50 17.326 50H32.674C46.6798 50 50 46.6798 50 32.674V17.326C50 3.32021 46.647 0 32.674 0ZM40.3644 35.6676H36.7348C35.3598 35.6676 34.9364 34.577 32.463 32.0709C30.3147 29.9881 29.3631 29.7116 28.8335 29.7116C28.0851 29.7116 27.8726 29.9225 27.8726 30.949V34.2286C27.8726 35.1083 27.596 35.6364 25.268 35.6364C21.4181 35.6364 17.1463 33.3083 14.1511 28.971C9.63407 22.6149 8.39818 17.8541 8.39818 16.8698C8.39818 16.3401 8.60911 15.8448 9.62626 15.8448H13.2636C14.1839 15.8448 14.5339 16.2682 14.8917 17.2526C16.6901 22.4446 19.6853 26.9929 20.9212 26.9929C21.3775 26.9929 21.5884 26.782 21.5884 25.618V20.2556C21.4493 17.7823 20.1478 17.5698 20.1478 16.6917C20.1478 16.2682 20.4978 15.8448 21.0587 15.8448H26.7789C27.5523 15.8448 27.8366 16.2682 27.8366 17.1792V24.4133C27.8366 25.1945 28.1866 25.4711 28.3976 25.4711C28.8538 25.4711 29.2444 25.1945 30.0897 24.3477C32.7021 21.4181 34.5739 16.901 34.5739 16.901C34.8177 16.3714 35.2411 15.8761 36.1614 15.8761H39.7988C40.8894 15.8761 41.1331 16.437 40.8894 17.2182C40.4331 19.3338 35.9817 25.6164 35.9817 25.6164C35.5989 26.2507 35.452 26.5273 35.9817 27.2351C36.3723 27.7648 37.6426 28.8632 38.4879 29.8475C40.0425 31.6131 41.2378 33.0943 41.5565 34.1192C41.9143 35.1364 41.3862 35.6661 40.3597 35.6661L40.3644 35.6676Z" fill="#0F2B36"/>
</svg>
