<svg width="50" height="50" viewBox="0 0 50 50" fill="none" xmlns="http://www.w3.org/2000/svg">
<path d="M50 25C50 31.6304 47.3661 37.9893 42.6777 42.6777C37.9893 47.3661 31.6304 50 25 50C18.3696 50 12.0107 47.3661 7.32233 42.6777C2.63392 37.9893 0 31.6304 0 25C0 18.3696 2.63392 12.0107 7.32233 7.32233C12.0107 2.63392 18.3696 0 25 0C31.6304 0 37.9893 2.63392 42.6777 7.32233C47.3661 12.0107 50 18.3696 50 25ZM25.8969 18.4563C23.4656 19.4688 18.6031 21.5625 11.3156 24.7375C10.1344 25.2062 9.5125 25.6687 9.45625 26.1187C9.3625 26.8781 10.3156 27.1781 11.6125 27.5875L12.1594 27.7594C13.4344 28.175 15.1531 28.6594 16.0437 28.6781C16.8562 28.6969 17.7594 28.3656 18.7563 27.6781C25.5656 23.0813 29.0813 20.7594 29.3 20.7094C29.4563 20.6719 29.675 20.6281 29.8187 20.7594C29.9656 20.8875 29.95 21.1344 29.9344 21.2C29.8406 21.6031 26.1 25.0781 24.1656 26.8781C23.5625 27.4406 23.1344 27.8375 23.0469 27.9281C22.8542 28.125 22.6583 28.3188 22.4594 28.5094C21.2719 29.6531 20.3844 30.5094 22.5063 31.9094C23.5281 32.5844 24.3469 33.1375 25.1625 33.6937C26.05 34.3 26.9375 34.9031 28.0875 35.6594C28.3781 35.8469 28.6594 36.05 28.9313 36.2437C29.9656 36.9812 30.9 37.6437 32.0469 37.5375C32.7156 37.475 33.4062 36.85 33.7562 34.975C34.5844 30.5469 36.2125 20.9562 36.5875 17.0031C36.6104 16.6745 36.5968 16.3444 36.5469 16.0187C36.5175 15.756 36.3903 15.5139 36.1906 15.3406C35.9063 15.1443 35.5673 15.0427 35.2219 15.05C34.2844 15.0656 32.8375 15.5688 25.8969 18.4563Z" fill="#0F2B36"/>
</svg>
