<svg width="294" height="29" viewBox="0 0 294 29" fill="none" xmlns="http://www.w3.org/2000/svg">
<path d="M53.6977 22.8604C53.6977 22.6562 53.6977 22.4009 53.468 22.4009H52.115C51.9618 22.4009 51.8853 22.3244 51.8853 22.0691V6.39495C51.8853 6.13968 51.9618 6.06309 52.115 6.06309H53.468C53.6977 6.06309 53.6977 5.83334 53.6977 5.62912C53.6977 5.4249 53.6977 5.16962 53.468 5.16962H35.6751C35.4453 5.16962 35.4453 5.4249 35.4453 5.62912C35.4453 5.83334 35.4453 6.06309 35.6751 6.06309H37.028C37.1812 6.06309 37.2578 6.13968 37.2578 6.39495V22.0691C37.2578 22.3244 37.1812 22.4009 37.028 22.4009H35.6751C35.4453 22.4009 35.4453 22.6562 35.4453 22.8604C35.4453 23.0647 35.4453 23.2944 35.6751 23.2944H41.7507C41.9804 23.2944 41.9804 23.0647 41.9804 22.8604C41.9804 22.6562 41.9804 22.4009 41.7507 22.4009H40.3977C40.2446 22.4009 40.168 22.3244 40.168 22.0691V6.31837H48.9751V22.0691C48.9751 22.3244 48.8985 22.4009 48.7453 22.4009H47.3924C47.1626 22.4009 47.1626 22.6562 47.1626 22.8604C47.1626 23.0647 47.1626 23.2944 47.3924 23.2944H53.468C53.6977 23.2944 53.6977 23.0647 53.6977 22.8604Z" fill="#323232"/>
<path d="M64.3582 10.8368C64.3582 12.2664 63.7456 15.3808 60.7843 15.3808H59.7377V6.29284H60.7843C63.7456 6.29284 64.3582 9.40724 64.3582 10.8368ZM67.5747 10.8368C67.5747 6.77787 64.7411 5.16962 61.0396 5.16962H55.2448C55.015 5.16962 55.015 5.4249 55.015 5.62912C55.015 5.83334 55.015 6.06309 55.2448 6.06309H56.5977C56.7509 6.06309 56.8275 6.13968 56.8275 6.39495V22.0691C56.8275 22.3244 56.7509 22.4009 56.5977 22.4009H55.2448C55.015 22.4009 55.015 22.6562 55.015 22.8604C55.015 23.0647 55.015 23.2944 55.2448 23.2944H61.3204C61.5502 23.2944 61.5502 23.0647 61.5502 22.8604C61.5502 22.6562 61.5502 22.4009 61.3204 22.4009H59.9674C59.8143 22.4009 59.7377 22.3244 59.7377 22.0691V16.504H61.0396C64.7411 16.504 67.5747 14.8957 67.5747 10.8368Z" fill="#323232"/>
<path d="M85.0534 14.2065C85.0534 18.6739 82.7303 22.2733 78.8756 22.2733C74.9954 22.2733 72.7489 18.6739 72.7489 14.2065C72.7489 9.73911 74.9954 6.11415 78.8756 6.11415C82.7303 6.11415 85.0534 9.73911 85.0534 14.2065ZM88.2699 14.232C88.2699 9.07538 84.1088 4.86328 78.8756 4.86328C73.6934 4.86328 69.5324 9.07538 69.5324 14.232C69.5324 19.4397 73.6934 23.6007 78.8756 23.6007C84.1088 23.6007 88.2699 19.4397 88.2699 14.232Z" fill="#323232"/>
<path d="M118.23 21.8138C118.23 21.533 118.025 21.4309 117.796 21.4309C117.54 21.4309 116.749 21.8648 116.238 21.8648C113.915 21.8648 112.741 20.0268 111.643 17.8314C110.495 15.5339 109.04 12.4961 105.338 11.8834C105.772 9.25408 107.61 6.1652 109.525 6.1652C109.448 6.39495 109.397 6.59918 109.397 6.77787C109.397 7.67135 109.984 8.0798 110.852 8.0798C111.873 8.0798 112.333 7.23738 112.333 6.59918C112.333 4.99092 110.878 4.86328 110.163 4.86328C106.487 4.86328 104.674 8.74352 103.985 11.7048H103.883V6.39495C103.883 6.21626 103.934 6.06309 104.164 6.06309H105.466C105.695 6.06309 105.695 5.83334 105.695 5.62912C105.695 5.4249 105.695 5.16962 105.466 5.16962H99.39C99.1603 5.16962 99.1603 5.4249 99.1603 5.62912C99.1603 5.83334 99.1603 6.06309 99.39 6.06309H100.743C100.896 6.06309 100.973 6.13968 100.973 6.39495V11.7048H100.871C100.181 8.74352 98.3689 4.86328 94.6929 4.86328C93.9781 4.86328 92.523 4.99092 92.523 6.59918C92.523 7.23738 92.9826 8.0798 94.0037 8.0798C94.8716 8.0798 95.4588 7.67135 95.4588 6.77787C95.4588 6.59918 95.4077 6.39495 95.3311 6.1652C97.2457 6.1652 99.0837 9.25408 99.5177 11.8834C95.8161 12.4961 94.3611 15.5339 93.2123 17.8314C92.1146 20.0268 90.9403 21.8648 88.6173 21.8648C88.1067 21.8648 87.3154 21.4309 87.0601 21.4309C86.8303 21.4309 86.6261 21.533 86.6261 21.8138C86.6261 22.6562 88.5662 23.6263 89.9958 23.6263C93.4931 23.6263 94.4887 22.2478 96.0714 19.2355C97.501 16.504 98.5732 13.6193 100.973 13.6193V22.0691C100.973 22.3244 100.896 22.4009 100.743 22.4009H99.39C99.1603 22.4009 99.1603 22.6562 99.1603 22.8604C99.1603 23.0647 99.1603 23.2944 99.39 23.2944H105.466C105.695 23.2944 105.695 23.0647 105.695 22.8604C105.695 22.6562 105.695 22.4009 105.466 22.4009H104.113C103.96 22.4009 103.883 22.3244 103.883 22.0691V13.6193C106.283 13.6193 107.355 16.504 108.784 19.2355C110.367 22.2478 111.363 23.6263 114.86 23.6263C116.289 23.6263 118.23 22.6562 118.23 21.8138Z" fill="#323232"/>
<path d="M137.784 22.8604C137.784 22.6562 137.784 22.4009 137.554 22.4009H136.201C136.048 22.4009 135.972 22.3244 135.972 22.0691V6.39495C135.972 6.13968 136.048 6.06309 136.201 6.06309H137.554C137.784 6.06309 137.784 5.83334 137.784 5.62912C137.784 5.4249 137.784 5.16962 137.554 5.16962H131.479C131.249 5.16962 131.249 5.4249 131.249 5.62912C131.249 5.83334 131.249 6.06309 131.479 6.06309H132.832C132.985 6.06309 133.062 6.13968 133.062 6.39495V6.90551L123.233 19.4142V6.39495C123.233 6.13968 123.31 6.06309 123.463 6.06309H124.79C125.02 6.06309 125.02 5.83334 125.02 5.62912C125.02 5.4249 125.02 5.16962 124.79 5.16962H118.74C118.511 5.16962 118.511 5.4249 118.511 5.62912C118.511 5.83334 118.511 6.06309 118.74 6.06309H120.093C120.247 6.06309 120.323 6.13968 120.323 6.39495V22.0691C120.323 22.3244 120.247 22.4009 120.093 22.4009H118.74C118.511 22.4009 118.511 22.6562 118.511 22.8604C118.511 23.0647 118.511 23.2944 118.74 23.2944H124.816C125.046 23.2944 125.046 23.0647 125.046 22.8604C125.046 22.6562 125.046 22.4009 124.816 22.4009H123.463C123.31 22.4009 123.233 22.3244 123.233 22.0691V21.6096L133.062 9.10091V22.0691C133.062 22.3244 132.985 22.4009 132.832 22.4009H131.479C131.249 22.4009 131.249 22.6562 131.249 22.8604C131.249 23.0647 131.249 23.2944 131.479 23.2944H137.554C137.784 23.2944 137.784 23.0647 137.784 22.8604Z" fill="#323232"/>
<path d="M138.643 7.77346C138.617 7.82452 138.566 7.95216 138.566 8.05427C138.566 8.28402 138.796 8.30955 139.128 8.30955C139.46 8.30955 139.613 8.20743 139.69 8.13085L140.889 6.9821C141.323 6.54812 141.911 6.29284 142.702 6.29284H145.638V22.0691C145.638 22.2988 145.561 22.3754 145.408 22.3754H144.055C143.825 22.3754 143.825 22.6052 143.825 22.8094C143.825 23.0136 143.825 23.2689 144.055 23.2944H150.131C150.36 23.2689 150.36 23.0136 150.36 22.8094C150.36 22.6052 150.36 22.3754 150.131 22.3754H148.778C148.624 22.3754 148.548 22.2988 148.548 22.0691V6.29284H151.483C152.275 6.29284 152.862 6.54812 153.296 6.9821L154.496 8.13085C154.572 8.20743 154.726 8.30955 155.057 8.30955C155.389 8.30955 155.619 8.28402 155.619 8.05427C155.619 7.95216 155.568 7.82452 155.542 7.77346L154.24 5.16962H139.945L138.643 7.77346Z" fill="#323232"/>
<path d="M171.783 14.2065C171.783 18.6739 169.46 22.2733 165.606 22.2733C161.725 22.2733 159.479 18.6739 159.479 14.2065C159.479 9.73911 161.725 6.11415 165.606 6.11415C169.46 6.11415 171.783 9.73911 171.783 14.2065ZM175 14.232C175 9.07538 170.839 4.86328 165.606 4.86328C160.423 4.86328 156.262 9.07538 156.262 14.232C156.262 19.4397 160.423 23.6007 165.606 23.6007C170.839 23.6007 175 19.4397 175 14.232Z" fill="#323232"/>
<path fill-rule="evenodd" clip-rule="evenodd" d="M14.3594 28.7189C22.2899 28.7189 28.7189 22.2899 28.7189 14.3594C28.7189 6.42894 22.2899 0 14.3594 0C6.42894 0 0 6.42894 0 14.3594C0 22.2899 6.42894 28.7189 14.3594 28.7189ZM9.71028 7.97656H15.4578L11.1733 20.7405H5.42578L9.71028 7.97656ZM17.5462 7.97656H23.2937L19.0092 20.7405H13.2617L17.5462 7.97656Z" fill="#E96A41"/>
<g clip-path="url(#clip0_1190_7523)">
<path fill-rule="evenodd" clip-rule="evenodd" d="M230.09 3.29696H228.179V4.42882H230.037V5.12949H228.179V6.74643H230.09V7.4471H227.463V2.56934H230.09V3.29696Z" fill="#9E9E9E"/>
<path fill-rule="evenodd" clip-rule="evenodd" d="M232.056 6.74643H232.508C233.304 6.74643 233.463 6.34219 233.463 6.01881C233.463 5.66847 233.304 5.29118 232.534 5.29118H232.056V6.74643ZM232.056 4.67136H232.295C232.454 4.67136 233.065 4.67136 233.065 3.94373C233.065 3.35086 232.587 3.29696 232.295 3.29696H232.056V4.67136ZM232.056 2.56934C232.667 2.56934 232.932 2.65018 233.198 2.83883C233.41 2.97357 233.755 3.29696 233.755 3.94373C233.755 4.18628 233.702 4.53661 233.357 4.83305C233.888 4.99474 234.18 5.45288 234.18 5.96491C234.18 6.1805 234.153 6.71948 233.702 7.09677C233.304 7.42015 232.906 7.4471 232.428 7.4471H231.34V2.56934H232.056Z" fill="#9E9E9E"/>
<path fill-rule="evenodd" clip-rule="evenodd" d="M235.824 4.77915H236.169C236.779 4.77915 237.098 4.48271 237.098 4.02458C237.098 3.75509 236.992 3.27001 236.142 3.27001H235.824V4.77915ZM236.142 2.56934C236.461 2.56934 236.859 2.62323 237.204 2.83883C237.602 3.10832 237.788 3.5934 237.788 4.02458C237.788 4.29407 237.735 4.7522 237.337 5.07559C236.939 5.42593 236.514 5.45288 236.169 5.45288H235.824V7.4471H235.107V2.56934H236.142Z" fill="#9E9E9E"/>
<path fill-rule="evenodd" clip-rule="evenodd" d="M242.697 5.02149C242.697 3.94353 241.981 3.16201 240.946 3.16201C239.911 3.16201 239.194 3.94353 239.194 5.02149C239.194 6.09945 239.911 6.85402 240.946 6.85402C241.981 6.85402 242.697 6.09945 242.697 5.02149ZM243.441 5.02149C243.441 6.44978 242.379 7.52774 240.946 7.52774C239.513 7.52774 238.451 6.44978 238.451 5.02149C238.451 3.59319 239.513 2.48828 240.946 2.48828C242.379 2.48828 243.441 3.59319 243.441 5.02149Z" fill="#9E9E9E"/>
<path fill-rule="evenodd" clip-rule="evenodd" d="M247.873 2.56934V7.4471H247.13V3.29696H245.087V7.4471H244.344V2.56934H247.873Z" fill="#9E9E9E"/>
<path fill-rule="evenodd" clip-rule="evenodd" d="M251.934 3.29696H250.023V4.42882H251.881V5.12949H250.023V6.74643H251.934V7.4471H249.307V2.56934H251.934V3.29696Z" fill="#9E9E9E"/>
<path fill-rule="evenodd" clip-rule="evenodd" d="M256.393 4.15949L253.182 7.66286V2.5695H253.898V5.85728L257.136 2.38086V7.44727H256.393V4.15949Z" fill="#9E9E9E"/>
<path fill-rule="evenodd" clip-rule="evenodd" d="M262.099 3.70099C261.569 3.2159 261.091 3.16201 260.826 3.16201C259.764 3.16201 259.074 3.94353 259.074 5.02149C259.074 6.04555 259.817 6.85402 260.826 6.85402C261.409 6.85402 261.834 6.55758 262.099 6.28809V7.17741C261.648 7.47384 261.118 7.52774 260.799 7.52774C259.923 7.52774 259.392 7.12351 259.101 6.88097C258.543 6.34199 258.357 5.72216 258.357 5.02149C258.357 4.13217 258.702 3.51234 259.101 3.13506C259.605 2.64998 260.162 2.48828 260.826 2.48828C261.277 2.48828 261.701 2.56913 262.099 2.83862V3.70099Z" fill="#9E9E9E"/>
<path fill-rule="evenodd" clip-rule="evenodd" d="M264.038 4.50966L265.896 2.56934H266.851L264.702 4.77915L266.878 7.4471H265.896L264.171 5.29118L264.038 5.42593V7.4471H263.295V2.56934H264.038V4.50966Z" fill="#9E9E9E"/>
<path fill-rule="evenodd" clip-rule="evenodd" d="M271.018 4.15949L267.807 7.66286V2.5695H268.523V5.85728L271.761 2.38086V7.44727H271.018V4.15949Z" fill="#9E9E9E"/>
<path fill-rule="evenodd" clip-rule="evenodd" d="M276.274 4.15949L273.062 7.66286V2.5695H273.779V5.85728L276.99 2.38086V7.44727H276.274V4.15949Z" fill="#9E9E9E"/>
<path fill-rule="evenodd" clip-rule="evenodd" d="M227.809 12.7285L229.057 15.2348L230.171 12.7285H230.914L228.765 17.5793H227.995L228.659 16.1241L226.934 12.7285H227.809Z" fill="#9E9E9E"/>
<path fill-rule="evenodd" clip-rule="evenodd" d="M232.268 14.6149H234.339V12.7285H235.055V17.5793H234.339V15.3156H232.268V17.5793H231.525V12.7285H232.268V14.6149Z" fill="#9E9E9E"/>
<path fill-rule="evenodd" clip-rule="evenodd" d="M239.726 14.2923L236.488 17.7957V12.7293H237.231V16.017L240.443 12.5137V17.5801H239.726V14.2923Z" fill="#9E9E9E"/>
<path fill-rule="evenodd" clip-rule="evenodd" d="M242.461 16.8787H242.912C243.735 16.8787 243.867 16.4475 243.867 16.151C243.867 15.8007 243.708 15.4234 242.938 15.4234H242.461V16.8787ZM242.461 14.8036H242.7C242.885 14.8036 243.469 14.8036 243.469 14.1029C243.469 13.4831 243.018 13.4022 242.726 13.4022H242.461V14.8036ZM242.461 12.7285C243.071 12.7285 243.363 12.7824 243.628 12.9711C243.841 13.1328 244.159 13.4292 244.159 14.076C244.159 14.3185 244.106 14.6958 243.761 14.9653C244.318 15.127 244.584 15.5851 244.584 16.0702C244.584 16.3127 244.584 16.8517 244.106 17.229C243.708 17.5524 243.337 17.5793 242.832 17.5793H241.744V12.7285H242.461Z" fill="#9E9E9E"/>
<path fill-rule="evenodd" clip-rule="evenodd" d="M248.298 13.4022H246.388V14.561H248.245V15.2617H246.388V16.8787H248.298V17.5793H245.645V12.7285H248.298V13.4022Z" fill="#9E9E9E"/>
<path fill-rule="evenodd" clip-rule="evenodd" d="M250.263 14.9114H250.581C251.218 14.9114 251.51 14.588 251.51 14.1568C251.51 13.8873 251.404 13.4022 250.581 13.4022H250.263V14.9114ZM250.581 12.7285C250.873 12.7285 251.298 12.7285 251.643 12.9711C252.041 13.2405 252.227 13.7256 252.227 14.1568C252.227 14.4533 252.147 14.8844 251.749 15.2348C251.377 15.5582 250.953 15.5851 250.581 15.5851H250.263V17.5793H249.52V12.7285H250.581Z" fill="#9E9E9E"/>
<path fill-rule="evenodd" clip-rule="evenodd" d="M256.659 13.8607C256.128 13.3757 255.651 13.3218 255.359 13.3218C254.324 13.3218 253.634 14.1033 253.634 15.1543C253.634 16.1784 254.35 16.9868 255.359 16.9868C255.943 16.9868 256.394 16.6904 256.659 16.4209V17.3102C256.182 17.6067 255.677 17.6606 255.359 17.6606C254.483 17.6606 253.926 17.2563 253.66 16.9868C253.103 16.4748 252.891 15.855 252.891 15.1543C252.891 14.265 253.262 13.6452 253.66 13.2679C254.165 12.7828 254.722 12.6211 255.385 12.6211C255.81 12.6211 256.235 12.7019 256.659 12.9714V13.8607Z" fill="#9E9E9E"/>
<path fill-rule="evenodd" clip-rule="evenodd" d="M260.8 14.2923L257.562 17.7957V12.7293H258.306V16.017L261.517 12.5137V17.5801H260.8V14.2923Z" fill="#9E9E9E"/>
<path fill-rule="evenodd" clip-rule="evenodd" d="M264.277 13.4022V17.5793H263.561V13.4022H262.473V12.7285H265.392V13.4022H264.277Z" fill="#9E9E9E"/>
<path fill-rule="evenodd" clip-rule="evenodd" d="M268.948 13.4022H267.063V14.561H268.895V15.2617H267.063V16.8787H268.948V17.5793H266.32V12.7285H268.948V13.4022Z" fill="#9E9E9E"/>
<path fill-rule="evenodd" clip-rule="evenodd" d="M271.523 13.4022V17.5793H270.78V13.4022H269.691V12.7285H272.611V13.4022H271.523Z" fill="#9E9E9E"/>
<path fill-rule="evenodd" clip-rule="evenodd" d="M228.179 27.0115H228.631C229.427 27.0115 229.586 26.5803 229.586 26.2838C229.586 25.9335 229.4 25.5562 228.657 25.5562H228.179V27.0115ZM228.179 24.9364H228.418C228.578 24.9364 229.188 24.9364 229.188 24.2357C229.188 23.6159 228.71 23.5351 228.445 23.5351H228.179V24.9364ZM228.179 22.8613C228.79 22.8613 229.055 22.9152 229.321 23.1039C229.533 23.2656 229.878 23.562 229.878 24.2088C229.878 24.4513 229.825 24.8017 229.48 25.0981C230.011 25.2598 230.303 25.7179 230.303 26.203C230.303 26.4455 230.276 26.9845 229.825 27.3618C229.427 27.6852 229.029 27.7121 228.551 27.7121H227.463V22.8613H228.179Z" fill="#9E9E9E"/>
<path fill-rule="evenodd" clip-rule="evenodd" d="M236.011 23.9936C235.48 23.5085 234.976 23.4546 234.71 23.4546C233.675 23.4546 232.959 24.2361 232.959 25.2871C232.959 26.3381 233.702 27.1196 234.71 27.1196C235.294 27.1196 235.745 26.8232 236.011 26.5537V27.443C235.533 27.7125 235.029 27.7934 234.71 27.7934C233.835 27.7934 233.277 27.4161 233.012 27.1196C232.455 26.6076 232.242 25.9878 232.242 25.2871C232.242 24.3978 232.614 23.778 233.012 23.4007C233.49 22.9156 234.073 22.7539 234.737 22.7539C235.188 22.7539 235.586 22.8348 236.011 23.1042V23.9936Z" fill="#9E9E9E"/>
<path fill-rule="evenodd" clip-rule="evenodd" d="M239.434 25.8263L238.717 24.1824L237.974 25.8263H239.434ZM239.726 26.5269H237.682L237.152 27.7127H236.355L238.744 22.5654L241.026 27.7127H240.23L239.726 26.5269Z" fill="#9E9E9E"/>
<path fill-rule="evenodd" clip-rule="evenodd" d="M242.354 24.7478H244.398V22.8613H245.141V27.7121H244.398V25.4484H242.354V27.7121H241.611V22.8613H242.354V24.7478Z" fill="#9E9E9E"/>
<path fill-rule="evenodd" clip-rule="evenodd" d="M247.291 24.7747L249.149 22.8613H250.104L247.954 25.0442L250.13 27.7121H249.149L247.45 25.5562L247.291 25.691V27.7121H246.574V22.8613H247.291V24.7747Z" fill="#9E9E9E"/>
<path fill-rule="evenodd" clip-rule="evenodd" d="M252.386 23.5351V27.7121H251.643V23.5351H250.555V22.8613H253.474V23.5351H252.386Z" fill="#9E9E9E"/>
<path fill-rule="evenodd" clip-rule="evenodd" d="M259.764 22.8613V27.7121H259.021V23.5351H256.951V27.7121H256.234V22.8613H259.764Z" fill="#9E9E9E"/>
<path fill-rule="evenodd" clip-rule="evenodd" d="M263.826 23.5351H261.915V24.7208H263.746V25.3945H261.915V27.0115H263.826V27.7121H261.172V22.8613H263.826V23.5351Z" fill="#9E9E9E"/>
<path fill-rule="evenodd" clip-rule="evenodd" d="M266.374 23.5351V27.7121H265.658V23.5351H264.543V22.8613H267.489V23.5351H266.374Z" fill="#9E9E9E"/>
<path fill-rule="evenodd" clip-rule="evenodd" d="M271.045 23.5351H269.135V24.7208H270.992V25.3945H269.135V27.0115H271.045V27.7121H268.418V22.8613H271.045V23.5351Z" fill="#9E9E9E"/>
<path fill-rule="evenodd" clip-rule="evenodd" d="M273.01 25.0442H273.355C273.991 25.0442 274.283 24.7208 274.283 24.2896C274.283 24.0201 274.177 23.5351 273.355 23.5351H273.01V25.0442ZM273.355 22.8613C273.646 22.8613 274.045 22.8613 274.39 23.1039C274.788 23.3734 275 23.8315 275 24.2896C275 24.5861 274.92 25.0172 274.522 25.3676C274.151 25.691 273.7 25.7449 273.355 25.7449H273.01V27.7121H272.293V22.8613H273.355Z" fill="#9E9E9E"/>
<path fill-rule="evenodd" clip-rule="evenodd" d="M276.751 27.0115H277.202C277.388 27.0115 278.158 27.0115 278.158 26.2838C278.158 25.9066 277.998 25.5023 277.202 25.5023H276.751V27.0115ZM276.008 22.8613H278.396V23.5351H276.751V24.8017H277.229C277.574 24.8017 278.051 24.8556 278.423 25.2059C278.688 25.4484 278.874 25.8257 278.874 26.2569C278.874 26.715 278.688 27.1732 278.29 27.4427C277.945 27.6852 277.521 27.7121 277.229 27.7121H276.008V22.8613Z" fill="#9E9E9E"/>
<path fill-rule="evenodd" clip-rule="evenodd" d="M280.149 22.8613L281.397 25.3676L282.511 22.8613H283.254L281.105 27.7121H280.335L280.998 26.2569L279.273 22.8613H280.149Z" fill="#9E9E9E"/>
<path fill-rule="evenodd" clip-rule="evenodd" d="M284.608 25.0442H284.927C285.59 25.0442 285.882 24.7208 285.882 24.2896C285.882 24.0201 285.75 23.5351 284.927 23.5351H284.608V25.0442ZM284.927 22.8613C285.219 22.8613 285.643 22.8613 285.988 23.1039C286.386 23.3734 286.572 23.8315 286.572 24.2896C286.572 24.5861 286.519 25.0172 286.095 25.3676C285.723 25.691 285.298 25.7449 284.927 25.7449H284.608V27.7121H283.865V22.8613H284.927Z" fill="#9E9E9E"/>
<path fill-rule="evenodd" clip-rule="evenodd" d="M287.607 22.8613H289.996V23.5351H288.351V27.7121H287.607V22.8613Z" fill="#9E9E9E"/>
<path fill-rule="evenodd" clip-rule="evenodd" d="M293.606 23.5351H291.695V24.7208H293.553V25.3945H291.695V27.0115H293.606V27.7121H290.979V22.8613H293.606V23.5351Z" fill="#9E9E9E"/>
<path fill-rule="evenodd" clip-rule="evenodd" d="M219.634 1.76074V28.3594H219.98V1.76074H219.634ZM211.805 23.8589V28.3594H212.15V23.7242C212.07 23.7511 211.991 23.7781 211.937 23.832L211.805 23.8589ZM211.805 1.76074V19.4662C211.937 19.3584 212.044 19.2776 212.15 19.1698V1.76074H211.805ZM202.834 23.4816V28.3594H203.179V23.6433C203.073 23.5894 202.94 23.5355 202.834 23.4816ZM202.834 11.9475V18.3883C202.94 18.55 203.073 18.7117 203.179 18.8464V11.5971C203.073 11.7049 202.94 11.8127 202.834 11.9475ZM202.834 1.76074V7.42003C202.94 7.39308 203.073 7.36613 203.179 7.33918V1.76074H202.834ZM195.004 1.76074V28.3594H195.349V1.76074H195.004Z" fill="#9E9E9E"/>
<path fill-rule="evenodd" clip-rule="evenodd" d="M214.591 9.06371C214.591 9.19845 214.804 10.1686 214.857 11.2196C214.936 12.4323 214.936 13.9145 214.698 15.1272C214.459 16.6364 213.875 18.2264 212.84 19.3313C211.566 20.7057 209.575 21.2986 207.77 21.2986C206.018 21.2986 204.187 20.7326 202.913 19.4391C201.772 18.2803 201.347 16.7172 201.347 15.0733C201.347 14.1571 201.533 13.2678 201.825 12.5132C202.409 10.9501 203.789 10.3842 205.381 10.4381C206.125 10.4651 207.558 10.5998 208.115 11.1927C208.858 11.9742 208.699 13.5911 208.407 14.4535C208.354 14.5883 208.248 14.9925 207.744 15.0464C207.478 15.0733 206.841 15.0194 206.549 14.9386C206.39 14.8577 206.31 14.6422 206.31 14.4535C206.284 14.0493 206.523 13.645 206.523 13.2678C206.523 13.1061 206.417 12.9713 206.231 12.9174C205.833 12.7827 204.798 12.4862 204.293 13.16C204.107 13.4294 203.895 14.3457 203.975 14.9925C204.054 15.801 204.532 16.3938 204.983 16.6903C205.488 17.0137 206.31 17.2293 207.133 17.2832C208.062 17.3101 209.071 17.1484 209.655 16.6903C210.769 15.8279 210.982 14.8038 211.114 13.4025C211.38 11.1657 210.398 9.09066 208.142 8.25524C204.771 6.98864 200.71 7.77016 199.303 11.5161C198.083 14.7499 198.534 18.7923 200.949 21.3255C203.603 24.1551 208.248 24.6402 211.698 23.2658C214.246 22.2687 215.839 20.4362 216.741 17.8491C217.272 16.4208 217.458 14.8577 217.484 13.3216C217.511 12.5401 217.458 11.8395 217.431 11.2196C217.378 10.6268 217.272 9.92608 217.192 9.46794C217.113 9.19845 216.901 9.14456 216.794 9.11761L215.202 8.76727C214.99 8.74032 214.671 8.76727 214.591 9.06371Z" fill="#FBC90B"/>
<path fill-rule="evenodd" clip-rule="evenodd" d="M255.014 1.70682V2.70394L256.261 1.35649V0.359375L255.014 1.70682Z" fill="#9E9E9E"/>
<path fill-rule="evenodd" clip-rule="evenodd" d="M274.895 1.70682V2.70394L276.142 1.35649V0.359375L274.895 1.70682Z" fill="#9E9E9E"/>
<path fill-rule="evenodd" clip-rule="evenodd" d="M253.873 25.4754V26.4725L255.12 25.152V24.1279L253.873 25.4754Z" fill="#9E9E9E"/>
</g>
<defs>
<clipPath id="clip0_1190_7523">
<rect width="99" height="28" fill="white" transform="translate(195 0.359375)"/>
</clipPath>
</defs>
</svg>
