<svg width="678" height="112" viewBox="0 0 678 112" fill="none" xmlns="http://www.w3.org/2000/svg">
<path d="M0 35C0 15.67 15.67 0 35 0H643C662.33 0 678 15.67 678 35V77C678 96.33 662.33 112 643 112H35C15.67 112 0 96.33 0 77V35Z" fill="#BFE9D5"/>
<path d="M564.16 63.52H566.96V53.84L567.16 52.66L566.36 53.6L564.16 55.18L563.4 54.16L567.8 50.76H568.52V63.52H571.26V65H564.16V63.52ZM577.158 63.84C578.078 63.84 578.838 63.5733 579.438 63.04C580.038 62.5067 580.338 61.7333 580.338 60.72C580.338 59.7467 580.038 59.02 579.438 58.54C578.852 58.06 578.038 57.82 576.998 57.82L575.318 57.92V51H581.558V52.48H576.818V56.46L577.678 56.42C578.998 56.4333 580.038 56.8 580.798 57.52C581.558 58.24 581.938 59.2733 581.938 60.62C581.938 61.3667 581.812 62.0333 581.558 62.62C581.305 63.1933 580.958 63.6733 580.518 64.06C580.092 64.4467 579.585 64.74 578.998 64.94C578.412 65.14 577.785 65.24 577.118 65.24C576.518 65.24 576.012 65.2067 575.598 65.14C575.185 65.0733 574.798 64.9733 574.438 64.84L574.858 63.48C575.165 63.6 575.492 63.6933 575.838 63.76C576.198 63.8133 576.638 63.84 577.158 63.84ZM585.617 56.02C585.617 55.66 585.717 55.38 585.917 55.18C586.13 54.9667 586.41 54.86 586.757 54.86C587.117 54.86 587.404 54.9667 587.617 55.18C587.83 55.38 587.937 55.66 587.937 56.02C587.937 56.3667 587.83 56.6467 587.617 56.86C587.404 57.0733 587.117 57.18 586.757 57.18C586.41 57.18 586.13 57.0733 585.917 56.86C585.717 56.6467 585.617 56.3667 585.617 56.02ZM585.617 64.08C585.617 63.72 585.717 63.44 585.917 63.24C586.13 63.0267 586.41 62.92 586.757 62.92C587.117 62.92 587.404 63.0267 587.617 63.24C587.83 63.44 587.937 63.72 587.937 64.08C587.937 64.4267 587.83 64.7067 587.617 64.92C587.404 65.1333 587.117 65.24 586.757 65.24C586.41 65.24 586.13 65.1333 585.917 64.92C585.717 64.7067 585.617 64.4267 585.617 64.08ZM597.092 54.18C597.092 54.8867 596.959 55.6133 596.692 56.36C596.439 57.0933 596.099 57.8333 595.672 58.58C595.259 59.3267 594.792 60.06 594.272 60.78C593.752 61.4867 593.232 62.16 592.712 62.8L591.732 63.66V63.74L593.012 63.52H597.372V65H589.412V64.42C589.705 64.1133 590.059 63.7333 590.472 63.28C590.885 62.8267 591.312 62.3267 591.752 61.78C592.205 61.22 592.645 60.6333 593.072 60.02C593.512 59.3933 593.905 58.76 594.252 58.12C594.612 57.48 594.899 56.8467 595.112 56.22C595.325 55.5933 595.432 55 595.432 54.44C595.432 53.7867 595.245 53.2467 594.872 52.82C594.499 52.38 593.932 52.16 593.172 52.16C592.665 52.16 592.172 52.2667 591.692 52.48C591.212 52.68 590.799 52.9133 590.452 53.18L589.792 52.04C590.259 51.64 590.812 51.3267 591.452 51.1C592.092 50.8733 592.779 50.76 593.512 50.76C594.085 50.76 594.592 50.8467 595.032 51.02C595.472 51.18 595.845 51.4133 596.152 51.72C596.459 52.0267 596.692 52.3933 596.852 52.82C597.012 53.2333 597.092 53.6867 597.092 54.18ZM599.93 58C599.93 55.6 600.317 53.7933 601.09 52.58C601.877 51.3667 603.017 50.76 604.51 50.76C606.124 50.76 607.29 51.36 608.01 52.56C608.744 53.7467 609.11 55.56 609.11 58C609.11 60.4 608.717 62.2067 607.93 63.42C607.157 64.6333 606.017 65.24 604.51 65.24C602.924 65.24 601.764 64.6067 601.03 63.34C600.297 62.0733 599.93 60.2933 599.93 58ZM601.59 58C601.59 58.8667 601.644 59.66 601.75 60.38C601.87 61.0867 602.05 61.7 602.29 62.22C602.53 62.7267 602.83 63.1267 603.19 63.42C603.564 63.7 604.004 63.84 604.51 63.84C605.524 63.84 606.264 63.3733 606.73 62.44C607.21 61.4933 607.45 60.0133 607.45 58C607.45 57.1467 607.397 56.36 607.29 55.64C607.197 54.92 607.03 54.3 606.79 53.78C606.564 53.26 606.264 52.86 605.89 52.58C605.517 52.3 605.057 52.16 604.51 52.16C603.51 52.16 602.77 52.6333 602.29 53.58C601.824 54.5267 601.59 56 601.59 58Z" fill="#323232"/>
<rect x="525.078" y="51" width="3.92307" height="19" rx="1.96154" fill="#323232"/>
<rect x="207.307" y="46" width="3.92307" height="27" rx="1.96154" fill="#323232"/>
<rect x="213.191" y="51" width="3.92307" height="19" rx="1.96154" fill="#323232"/>
<rect x="183.77" y="38" width="3.92307" height="39" rx="1.96154" fill="#323232"/>
<rect x="189.654" y="43" width="3.92307" height="39" rx="1.96154" fill="#323232"/>
<rect x="201.424" y="43" width="3.92307" height="39" rx="1.96154" fill="#323232"/>
<rect x="195.539" y="30" width="3.92307" height="47" rx="1.96154" fill="#323232"/>
<rect x="177.885" y="43" width="3.92307" height="39" rx="1.96154" fill="#323232"/>
<rect x="172" y="30" width="3.92307" height="47" rx="1.96154" fill="#323232"/>
<rect x="495.652" y="37" width="3.92307" height="39" rx="1.96154" fill="#323232"/>
<rect x="489.771" y="46" width="3.92307" height="27" rx="1.96154" fill="#323232"/>
<rect x="483.885" y="53" width="3.92307" height="19" rx="1.96154" fill="#323232"/>
<rect x="501.537" y="43" width="3.92307" height="39" rx="1.96154" fill="#323232"/>
<rect x="507.424" y="38" width="3.92307" height="39" rx="1.96154" fill="#323232"/>
<rect x="513.307" y="43" width="3.92307" height="39" rx="1.96154" fill="#323232"/>
<rect x="519.191" y="30" width="3.92307" height="47" rx="1.96154" fill="#323232"/>
<rect x="478" y="46" width="3.92307" height="27" rx="1.96154" fill="#323232"/>
<rect x="430.922" y="44" width="3.92307" height="27" rx="1.96154" fill="#323232"/>
<rect x="425.039" y="51" width="3.92307" height="19" rx="1.96154" fill="#323232"/>
<rect x="419.154" y="51" width="3.92307" height="19" rx="1.96154" fill="#323232"/>
<rect x="407.385" y="35" width="3.92307" height="39" rx="1.96154" fill="#323232"/>
<rect x="401.5" y="44" width="3.92307" height="27" rx="1.96154" fill="#323232"/>
<rect x="395.615" y="51" width="3.92307" height="19" rx="1.96154" fill="#323232"/>
<rect x="413.268" y="41" width="3.92307" height="39" rx="1.96154" fill="#323232"/>
<rect x="366.193" y="37" width="3.92307" height="39" rx="1.96154" fill="#323232"/>
<rect x="360.307" y="46" width="3.92307" height="27" rx="1.96154" fill="#323232"/>
<rect x="354.422" y="53" width="3.92307" height="19" rx="1.96154" fill="#323232"/>
<rect x="372.076" y="43" width="3.92307" height="39" rx="1.96154" fill="#323232"/>
<rect x="377.961" y="38" width="3.92307" height="39" rx="1.96154" fill="#323232"/>
<rect x="383.848" y="43" width="3.92307" height="39" rx="1.96154" fill="#323232"/>
<rect x="389.73" y="30" width="3.92307" height="47" rx="1.96154" fill="#323232"/>
<rect x="348.537" y="46" width="3.92307" height="27" rx="1.96154" fill="#323232"/>
<rect x="472.115" y="53" width="3.92307" height="19" rx="1.96154" fill="#323232"/>
<rect x="466.23" y="53" width="3.92307" height="19" rx="1.96154" fill="#323232"/>
<rect x="454.461" y="37" width="3.92307" height="39" rx="1.96154" fill="#323232"/>
<rect x="448.576" y="46" width="3.92307" height="27" rx="1.96154" fill="#323232"/>
<rect x="442.693" y="53" width="3.92307" height="19" rx="1.96154" fill="#323232"/>
<rect x="460.346" y="43" width="3.92307" height="39" rx="1.96154" fill="#323232"/>
<rect x="436.809" y="32" width="3.92307" height="47" rx="1.96154" fill="#323232"/>
<rect x="301.461" y="44" width="3.92307" height="27" rx="1.96154" fill="#323232"/>
<rect x="295.578" y="51" width="3.92307" height="19" rx="1.96154" fill="#323232"/>
<rect x="289.693" y="51" width="3.92307" height="19" rx="1.96154" fill="#323232"/>
<rect x="277.924" y="35" width="3.92307" height="39" rx="1.96154" fill="#323232"/>
<rect x="272.039" y="44" width="3.92307" height="27" rx="1.96154" fill="#323232"/>
<rect x="266.152" y="51" width="3.92307" height="19" rx="1.96154" fill="#323232"/>
<rect x="283.809" y="41" width="3.92307" height="39" rx="1.96154" fill="#323232"/>
<rect x="236.732" y="37" width="3.92307" height="39" rx="1.96154" fill="#323232"/>
<rect x="230.846" y="46" width="3.92307" height="27" rx="1.96154" fill="#323232"/>
<rect x="224.961" y="53" width="3.92307" height="19" rx="1.96154" fill="#323232"/>
<rect x="242.617" y="43" width="3.92307" height="39" rx="1.96154" fill="#323232"/>
<rect x="248.5" y="38" width="3.92307" height="39" rx="1.96154" fill="#323232"/>
<rect x="254.385" y="43" width="3.92307" height="39" rx="1.96154" fill="#323232"/>
<rect x="260.27" y="30" width="3.92307" height="47" rx="1.96154" fill="#323232"/>
<rect x="219.078" y="46" width="3.92307" height="27" rx="1.96154" fill="#323232"/>
<rect x="342.654" y="53" width="3.92307" height="19" rx="1.96154" fill="#323232"/>
<rect x="336.77" y="53" width="3.92307" height="19" rx="1.96154" fill="#323232"/>
<rect x="325" y="37" width="3.92307" height="39" rx="1.96154" fill="#323232"/>
<rect x="319.115" y="46" width="3.92307" height="27" rx="1.96154" fill="#323232"/>
<rect x="313.23" y="53" width="3.92307" height="19" rx="1.96154" fill="#323232"/>
<rect x="330.885" y="43" width="3.92307" height="39" rx="1.96154" fill="#323232"/>
<rect x="307.344" y="32" width="3.92307" height="47" rx="1.96154" fill="#323232"/>
<path d="M146 56C146 57.9779 145.413 59.9112 144.315 61.5557C143.216 63.2003 141.654 64.482 139.827 65.2388C138 65.9957 135.989 66.1937 134.049 65.8079C132.109 65.422 130.327 64.4696 128.929 63.0711C127.53 61.6725 126.578 59.8908 126.192 57.9509C125.806 56.0111 126.004 54.0004 126.761 52.1732C127.518 50.3459 128.8 48.7841 130.444 47.6853C132.089 46.5865 134.022 46 136 46H140.114L136.901 49.2142L137.844 50.157L142.667 45.3334L137.843 40.5098L136.9 41.4526L140.114 44.6667H136C133.758 44.6667 131.567 45.3314 129.704 46.5767C127.84 47.822 126.387 49.5921 125.529 51.6629C124.672 53.7339 124.447 56.0127 124.884 58.2111C125.322 60.4095 126.401 62.4289 127.986 64.0139C129.571 65.5989 131.59 66.6783 133.789 67.1156C135.987 67.5529 138.266 67.3284 140.337 66.4707C142.408 65.6129 144.178 64.1603 145.423 62.2965C146.669 60.4328 147.333 58.2416 147.333 56H146Z" fill="#323232"/>
<path d="M100.013 47.9858C98.9633 46.9303 97.7145 46.0934 96.339 45.5237C94.9636 44.954 93.4888 44.6627 92 44.6667H87.8857L91.099 41.4526L90.1564 40.5098L85.3333 45.3334L90.1569 50.157L91.0996 49.2142L87.8857 46H92C93.9778 46 95.9112 46.5865 97.5557 47.6853C99.2001 48.7841 100.482 50.3459 101.239 52.1732C101.996 54.0004 102.194 56.0111 101.808 57.9509C101.422 59.8908 100.47 61.6725 99.071 63.0711C97.6725 64.4696 95.8906 65.422 93.9509 65.8079C92.011 66.1937 90.0004 65.9957 88.1731 65.2388C86.3459 64.482 84.7841 63.2003 83.6853 61.5557C82.5865 59.9112 82 57.9779 82 56H80.6666C80.6666 57.8639 81.1262 59.6989 82.0048 61.3427C82.8834 62.9864 84.1539 64.3881 85.7036 65.4236C87.2533 66.4591 89.0344 67.0963 90.8893 67.2789C92.7441 67.4616 94.6154 67.184 96.3373 66.4707C98.0593 65.7575 99.5786 64.6304 100.761 63.1896C101.943 61.7488 102.752 60.0387 103.116 58.2107C103.479 56.3827 103.386 54.4932 102.845 52.7097C102.304 50.9261 101.331 49.3036 100.013 47.9858Z" fill="#323232"/>
<path d="M26.6667 44.4031L46.7527 55.9997L26.6667 67.5963V44.4031ZM25.3334 42.0938V69.9064L49.4194 55.9997L25.3334 42.0938Z" fill="#323232"/>
<path d="M630 50.6667V61.3333H636.781L644.667 69.2188V42.7812L636.781 50.6667H630ZM643.333 46.0001V66L637.724 60.3905L637.333 60H631.333V52H637.333L643.333 46.0001ZM648.097 53.6428C648.722 54.2684 649.072 55.1161 649.072 55.9999C649.072 56.8837 648.722 57.7315 648.097 58.3569L649.04 59.2997C649.914 58.4239 650.405 57.2371 650.405 55.9997C650.405 54.7625 649.914 53.5757 649.04 52.6998L648.097 53.6428ZM652.811 48.9288L651.869 49.8716C653.492 51.4983 654.403 53.7021 654.403 55.9999C654.403 58.2976 653.492 60.5016 651.869 62.1281L652.811 63.0709C654.684 61.1943 655.736 58.6512 655.736 56C655.736 53.3488 654.684 50.8058 652.811 48.929V48.9288Z" fill="#323232"/>
</svg>
